<svg width="205" height="78" viewBox="0 0 205 78" fill="none" xmlns="http://www.w3.org/2000/svg">
<path d="M69.0475 41.5225C70.3225 42.7975 71.5975 43.435 72.8725 43.435C73.5325 43.435 74.0575 43.285 74.4475 42.985C74.8525 42.67 75.055 42.2725 75.055 41.7925C75.055 41.2975 74.815 40.885 74.335 40.555C73.855 40.21 73.27 39.91 72.58 39.655C71.905 39.4 71.23 39.115 70.555 38.8C69.88 38.47 69.3025 38.005 68.8225 37.405C68.3425 36.805 68.1025 36.0775 68.1025 35.2225C68.1025 33.8725 68.665 32.71 69.79 31.735C70.915 30.745 72.25 30.25 73.795 30.25C74.5 30.25 75.1825 30.325 75.8425 30.475C76.5025 30.625 77.14 30.8425 77.755 31.1275L76.225 34.4125C75.805 34.0825 75.2275 33.7825 74.4925 33.5125C73.7725 33.2275 73.135 33.085 72.58 33.085C72.04 33.085 71.5975 33.22 71.2525 33.49C70.9225 33.745 70.7575 34.09 70.7575 34.525C70.7575 34.96 70.9975 35.35 71.4775 35.695C71.9575 36.025 72.535 36.3175 73.21 36.5725C73.9 36.8275 74.5825 37.1125 75.2575 37.4275C75.9475 37.7275 76.5325 38.1775 77.0125 38.7775C77.4925 39.3775 77.7325 40.105 77.7325 40.96C77.7325 42.37 77.17 43.6075 76.045 44.6725C74.92 45.7225 73.6075 46.2475 72.1075 46.2475C70.9825 46.2475 69.985 45.9775 69.115 45.4375C68.35 44.9725 67.81 44.56 67.495 44.2L67.2925 43.9525L69.0475 41.5225ZM78.9459 41.2975C78.9459 39.3775 79.4634 37.75 80.4984 36.415C81.5334 35.08 82.7409 34.4125 84.1209 34.4125C85.5159 34.4125 86.5959 34.8625 87.3609 35.7625C88.1409 36.6625 88.5309 37.855 88.5309 39.34C88.5309 41.32 88.0284 42.97 87.0234 44.29C86.0334 45.595 84.7809 46.2475 83.2659 46.2475C82.0209 46.2475 80.9859 45.7825 80.1609 44.8525C79.3509 43.9075 78.9459 42.7225 78.9459 41.2975ZM86.0109 40.51C86.0109 38.335 85.2684 37.2475 83.7834 37.2475C82.2384 37.2475 81.4659 38.2675 81.4659 40.3075C81.4659 41.3725 81.6834 42.205 82.1184 42.805C82.5534 43.405 83.1234 43.705 83.8284 43.705C84.5484 43.705 85.0884 43.435 85.4484 42.895C85.8234 42.34 86.0109 41.545 86.0109 40.51ZM92.7254 46C91.8404 46 91.1129 45.7225 90.5429 45.1675C89.9879 44.5975 89.7104 43.84 89.7104 42.895C89.7104 41.935 90.1454 41.11 91.0154 40.42C91.8854 39.715 92.9429 39.3625 94.1879 39.3625H95.7179V38.98C95.7179 38.245 95.5679 37.7425 95.2679 37.4725C94.9679 37.2025 94.4054 37.0675 93.5804 37.0675C93.2354 37.0675 92.8229 37.1425 92.3429 37.2925C91.8779 37.4275 91.3529 37.645 90.7679 37.945L90.1154 36.1675C90.7604 35.7175 91.5404 35.3125 92.4554 34.9525C93.3854 34.5925 94.1504 34.4125 94.7504 34.4125C97.1054 34.4125 98.2829 35.5525 98.2829 37.8325V42.2425C98.2829 43.0825 98.5454 44.02 99.0704 45.055L96.6854 46.0675C96.3104 45.3475 96.0329 44.7025 95.8529 44.1325C95.0279 45.3775 93.9854 46 92.7254 46ZM93.6704 43.705C94.2704 43.705 94.9529 43.3975 95.7179 42.7825V41.275C94.9229 41.095 94.2779 41.005 93.7829 41.005C92.8379 41.005 92.3654 41.425 92.3654 42.265C92.3654 42.7 92.4854 43.0525 92.7254 43.3225C92.9654 43.5775 93.2804 43.705 93.6704 43.705ZM107.547 40.3075C107.547 39.2725 107.457 38.5825 107.277 38.2375C107.097 37.8925 106.677 37.72 106.017 37.72C105.357 37.72 104.607 37.9825 103.767 38.5075V40.15L104.015 45.4375L101 46L101.27 40.5325C101.21 38.5225 101.045 36.7225 100.775 35.1325L103.497 34.5475C103.602 35.4175 103.677 36.265 103.722 37.09C103.947 36.79 104.202 36.4975 104.487 36.2125C104.772 35.9125 105.222 35.5825 105.837 35.2225C106.452 34.8475 107.075 34.66 107.705 34.66C108.335 34.66 108.867 34.8625 109.302 35.2675C109.737 35.6725 110.015 36.2275 110.135 36.9325C111.38 35.4175 112.64 34.66 113.915 34.66C114.71 34.66 115.34 34.93 115.805 35.47C116.27 35.995 116.502 36.715 116.502 37.63L116.367 40.15L116.615 45.55L113.577 46.1125L113.847 40.3075C113.847 39.2725 113.757 38.5825 113.577 38.2375C113.397 37.8925 112.985 37.72 112.34 37.72C111.695 37.72 110.967 37.9675 110.157 38.4625L110.067 40.15L110.315 45.55L107.277 46.1125L107.547 40.3075ZM123.134 43.705C123.569 43.705 124.026 43.5925 124.506 43.3675C124.986 43.1425 125.361 42.9175 125.631 42.6925L126.036 42.355L127.071 43.615C126.921 43.87 126.689 44.1625 126.374 44.4925C126.059 44.8225 125.736 45.1075 125.406 45.3475C125.091 45.5725 124.664 45.7825 124.124 45.9775C123.599 46.1575 123.051 46.2475 122.481 46.2475C121.266 46.2475 120.276 45.79 119.511 44.875C118.746 43.945 118.364 42.7525 118.364 41.2975C118.364 39.4675 118.896 37.8625 119.961 36.4825C121.026 35.1025 122.271 34.4125 123.696 34.4125C124.791 34.4125 125.639 34.72 126.239 35.335C126.854 35.95 127.161 36.8125 127.161 37.9225C127.161 38.5825 127.049 39.3325 126.824 40.1725L126.374 40.645L120.749 41.1625C121.004 42.8575 121.799 43.705 123.134 43.705ZM123.134 36.73C122.474 36.73 121.919 37 121.469 37.54C121.019 38.065 120.756 38.74 120.681 39.565L124.506 39.0925C124.551 38.7475 124.574 38.4625 124.574 38.2375C124.574 37.2325 124.094 36.73 123.134 36.73ZM133.175 43.705C133.61 43.705 134.068 43.5925 134.548 43.3675C135.028 43.1425 135.403 42.9175 135.673 42.6925L136.078 42.355L137.113 43.615C136.963 43.87 136.73 44.1625 136.415 44.4925C136.1 44.8225 135.778 45.1075 135.448 45.3475C135.133 45.5725 134.705 45.7825 134.165 45.9775C133.64 46.1575 133.093 46.2475 132.523 46.2475C131.308 46.2475 130.318 45.79 129.553 44.875C128.788 43.945 128.405 42.7525 128.405 41.2975C128.405 39.4675 128.938 37.8625 130.003 36.4825C131.068 35.1025 132.313 34.4125 133.738 34.4125C134.833 34.4125 135.68 34.72 136.28 35.335C136.895 35.95 137.203 36.8125 137.203 37.9225C137.203 38.5825 137.09 39.3325 136.865 40.1725L136.415 40.645L130.79 41.1625C131.045 42.8575 131.84 43.705 133.175 43.705ZM133.175 36.73C132.515 36.73 131.96 37 131.51 37.54C131.06 38.065 130.798 38.74 130.723 39.565L134.548 39.0925C134.593 38.7475 134.615 38.4625 134.615 38.2375C134.615 37.2325 134.135 36.73 133.175 36.73ZM148.016 30.475C149.456 30.475 150.596 30.805 151.436 31.465C152.276 32.11 152.696 32.98 152.696 34.075C152.696 35.83 151.976 37.0525 150.536 37.7425C152.486 38.4175 153.461 39.6625 153.461 41.4775C153.461 42.8425 152.876 43.9825 151.706 44.8975C150.536 45.7975 149.066 46.2475 147.296 46.2475C146.366 46.2475 144.978 46.165 143.133 46L143.403 40.5325L143.133 30.475H148.016ZM147.723 39.3175H145.901L145.878 40.15L146.036 43.8175C146.906 43.8925 147.573 43.93 148.038 43.93C148.833 43.93 149.448 43.735 149.883 43.345C150.333 42.94 150.558 42.355 150.558 41.59C150.558 40.825 150.333 40.255 149.883 39.88C149.433 39.505 148.713 39.3175 147.723 39.3175ZM147.206 32.7475H146.103L145.968 37.135H147.431C148.196 37.135 148.781 36.9325 149.186 36.5275C149.591 36.1075 149.793 35.515 149.793 34.75C149.793 33.415 148.931 32.7475 147.206 32.7475ZM155.015 41.2975C155.015 39.3775 155.533 37.75 156.568 36.415C157.603 35.08 158.81 34.4125 160.19 34.4125C161.585 34.4125 162.665 34.8625 163.43 35.7625C164.21 36.6625 164.6 37.855 164.6 39.34C164.6 41.32 164.098 42.97 163.093 44.29C162.103 45.595 160.85 46.2475 159.335 46.2475C158.09 46.2475 157.055 45.7825 156.23 44.8525C155.42 43.9075 155.015 42.7225 155.015 41.2975ZM162.08 40.51C162.08 38.335 161.338 37.2475 159.853 37.2475C158.308 37.2475 157.535 38.2675 157.535 40.3075C157.535 41.3725 157.753 42.205 158.188 42.805C158.623 43.405 159.193 43.705 159.898 43.705C160.618 43.705 161.158 43.435 161.518 42.895C161.893 42.34 162.08 41.545 162.08 40.51ZM165.87 41.2975C165.87 39.3775 166.387 37.75 167.422 36.415C168.457 35.08 169.665 34.4125 171.045 34.4125C172.44 34.4125 173.52 34.8625 174.285 35.7625C175.065 36.6625 175.455 37.855 175.455 39.34C175.455 41.32 174.952 42.97 173.947 44.29C172.957 45.595 171.705 46.2475 170.19 46.2475C168.945 46.2475 167.91 45.7825 167.085 44.8525C166.275 43.9075 165.87 42.7225 165.87 41.2975ZM172.935 40.51C172.935 38.335 172.192 37.2475 170.707 37.2475C169.162 37.2475 168.39 38.2675 168.39 40.3075C168.39 41.3725 168.607 42.205 169.042 42.805C169.477 43.405 170.047 43.705 170.752 43.705C171.472 43.705 172.012 43.435 172.372 42.895C172.747 42.34 172.935 41.545 172.935 40.51ZM184.419 46.225L180.189 39.9925V40.15L180.437 45.4375L177.399 46L177.669 40.5325L177.399 29.1475L180.482 28.585L180.189 39.4525L184.689 34.525L186.804 35.965L182.867 39.655L186.984 44.515L184.419 46.225ZM191.651 43.9075C192.431 43.9075 192.821 43.5625 192.821 42.8725C192.821 42.6325 192.649 42.4075 192.304 42.1975C191.974 41.9875 191.561 41.7775 191.066 41.5675C190.586 41.3575 190.099 41.125 189.604 40.87C189.124 40.6 188.711 40.2325 188.366 39.7675C188.036 39.3025 187.871 38.77 187.871 38.17C187.871 37.165 188.314 36.2875 189.199 35.5375C190.084 34.7875 191.104 34.4125 192.259 34.4125C192.799 34.4125 193.324 34.48 193.834 34.615C194.359 34.735 194.861 34.93 195.341 35.2L193.834 37.945C193.729 37.855 193.594 37.7425 193.429 37.6075C193.264 37.4725 192.949 37.3 192.484 37.09C192.034 36.865 191.629 36.7525 191.269 36.7525C190.924 36.7525 190.654 36.835 190.459 37C190.279 37.15 190.189 37.3675 190.189 37.6525C190.189 37.9225 190.444 38.2 190.954 38.485C191.479 38.755 192.049 39.01 192.664 39.25C193.279 39.475 193.841 39.8575 194.351 40.3975C194.876 40.9225 195.139 41.5525 195.139 42.2875C195.139 43.3375 194.704 44.26 193.834 45.055C192.979 45.85 191.989 46.2475 190.864 46.2475C190.144 46.2475 189.469 46.09 188.839 45.775C188.224 45.46 187.781 45.145 187.511 44.83L187.106 44.3575L188.884 42.2875C188.974 42.4075 189.101 42.5575 189.266 42.7375C189.431 42.9175 189.754 43.1575 190.234 43.4575C190.729 43.7575 191.201 43.9075 191.651 43.9075Z" fill="#6366F1"/>
<path d="M12 37L12.7409 37.6739C19.6964 43.9997 30.4064 43.7022 37 37V37" stroke="#6366F1" stroke-width="3"/>
<path d="M34 37L34.7409 37.6739C41.6964 43.9997 52.4064 43.7022 59 37V37" stroke="#6366F1" stroke-width="3"/>
</svg>
